<?xml version="1.0" encoding="UTF-8"?>
<svg width="512" height="512" viewBox="0 0 512 512" fill="none" xmlns="http://www.w3.org/2000/svg">
    <path d="M256 128C269.255 128 280 138.745 280 152V238.059L366.059 152L384 169.941L297.941 256L384 342.059L366.059 360L280 273.941V360C280 373.255 269.255 384 256 384C242.745 384 232 373.255 232 360V273.941L145.941 360L128 342.059L214.059 256L128 169.941L145.941 152L232 238.059V152C232 138.745 242.745 128 256 128Z" fill="#9CA3AF"/>
    <path fill-rule="evenodd" clip-rule="evenodd" d="M256 64C150.98 64 66 148.98 66 254C66 359.02 150.98 444 256 444C361.02 444 446 359.02 446 254C446 148.98 361.02 64 256 64ZM96 254C96 165.634 167.634 94 256 94C344.366 94 416 165.634 416 254C416 342.366 344.366 414 256 414C167.634 414 96 342.366 96 254Z" fill="#9CA3AF"/>
</svg>
