<?xml version="1.0" encoding="UTF-8"?>
<svg width="800px" height="800px" viewBox="0 0 24 24" version="1.1" xmlns="http://www.w3.org/2000/svg">
    <g stroke="none" stroke-width="1" fill="none" fill-rule="evenodd">
        <path d="M7.5,4.5 C7.5,4.5 7,5.5 7,7 C7,8.5 8,9.5 9.5,9.5 C11,9.5 12,8.5 12,7 C12,5.5 11.5,4.5 11.5,4.5" stroke="currentColor" stroke-width="1.5" stroke-linecap="round" opacity="0.9" fill="#E9D5FF"/>
        <path d="M16.5,4.5 C16.5,4.5 16,5.5 16,7 C16,8.5 17,9.5 18.5,9.5 C20,9.5 21,8.5 21,7 C21,5.5 20.5,4.5 20.5,4.5" stroke="currentColor" stroke-width="1.5" stroke-linecap="round" opacity="0.9" fill="#E9D5FF"/>
        <path d="M3,13.5 C3,13.5 4,14.5 6,14.5 C8,14.5 9,13.5 9,13.5" stroke="currentColor" stroke-width="1.5" stroke-linecap="round" opacity="0.9" fill="#E9D5FF"/>
        <path d="M12,13.5 C12,13.5 13,14.5 15,14.5 C17,14.5 18,13.5 18,13.5" stroke="currentColor" stroke-width="1.5" stroke-linecap="round" opacity="0.9" fill="#E9D5FF"/>
        <path d="M7.5,18.5 C7.5,18.5 8.5,19.5 10.5,19.5 C12.5,19.5 13.5,18.5 13.5,18.5" stroke="currentColor" stroke-width="1.5" stroke-linecap="round" opacity="0.9" fill="#E9D5FF"/>
        <path d="M16.5,18.5 C16.5,18.5 17.5,19.5 19.5,19.5 C21.5,19.5 22.5,18.5 22.5,18.5" stroke="currentColor" stroke-width="1.5" stroke-linecap="round" opacity="0.9" fill="#E9D5FF"/>
        <circle cx="12" cy="12" r="9" stroke="currentColor" stroke-width="1.5" opacity="0.9" fill="#E9D5FF"/>
        <path d="M12,3 C7.02943725,3 3,7.02943725 3,12" stroke="currentColor" stroke-width="1.5" stroke-linecap="round" opacity="0.9"/>
        <path d="M21,12 C21,16.9705627 16.9705627,21 12,21" stroke="currentColor" stroke-width="1.5" stroke-linecap="round" opacity="0.9"/>
        <circle cx="12" cy="12" r="3" stroke="currentColor" stroke-width="1.5" opacity="0.9" fill="#A855F7"/>
    </g>
</svg>
